<svg width="48" height="48" viewBox="0 0 48 48" fill="none" xmlns="http://www.w3.org/2000/svg">
<rect width="48" height="48" rx="24" fill="#F0F1F8"/>
<g clip-path="url(#clip0_1_95)">
<path d="M23.9963 29.7682L28.0073 31.8762C28.7883 32.2862 29.7003 31.6232 29.5513 30.7542L28.7853 26.2882L32.0313 23.1272C32.6633 22.5112 32.3153 21.4382 31.4413 21.3112L26.9573 20.6592L24.9523 16.5942C24.5623 15.8032 23.4333 15.8032 23.0433 16.5942L21.0373 20.6592L16.5533 21.3112C15.6803 21.4382 15.3313 22.5112 15.9633 23.1272L19.2093 26.2882L18.4433 30.7542C18.2943 31.6232 19.2063 32.2872 19.9873 31.8762L23.9983 29.7682H23.9963Z" fill="#F2B234"/>
</g>
<defs>
<clipPath id="clip0_1_95">
<rect width="24" height="24" fill="white" transform="translate(12 12)"/>
</clipPath>
</defs>
</svg>
