<svg width="20" height="21" viewBox="0 0 20 21" fill="none" xmlns="http://www.w3.org/2000/svg">
<path d="M10.0003 2.16663C5.40866 2.16663 1.66699 5.90829 1.66699 10.5C1.66699 15.0916 5.40866 18.8333 10.0003 18.8333C14.592 18.8333 18.3337 15.0916 18.3337 10.5C18.3337 5.90829 14.592 2.16663 10.0003 2.16663ZM13.6253 13.475C13.5087 13.675 13.3003 13.7833 13.0837 13.7833C12.9753 13.7833 12.867 13.7583 12.767 13.6916L10.1837 12.15C9.54199 11.7666 9.06699 10.925 9.06699 10.1833V6.76663C9.06699 6.42496 9.35033 6.14163 9.69199 6.14163C10.0337 6.14163 10.317 6.42496 10.317 6.76663V10.1833C10.317 10.4833 10.567 10.925 10.8253 11.075L13.4087 12.6166C13.7087 12.7916 13.8087 13.175 13.6253 13.475Z" fill="white"/>
</svg>
